<?xml version="1.0" encoding="UTF-8"?>
<svg version="1.1" xmlns="http://www.w3.org/2000/svg" width="776" height="980">
<path d="M0 0 C1.85443726 0.00223572 1.85443726 0.00223572 3.74633789 0.0045166 C21.52704565 0.04307773 38.85210372 0.53569945 56.4375 3.3125 C58.3903694 3.583877 60.34349776 3.8533967 62.296875 4.12109375 C122.95746453 12.88748191 182.37982844 37.70308129 231.4375 74.3125 C232.01886719 74.74369141 232.60023438 75.17488281 233.19921875 75.61914062 C245.16638026 84.53289593 256.41965262 94.26083308 267.4375 104.3125 C268.45004315 105.220585 269.46308718 106.12811172 270.4765625 107.03515625 C275.57313496 111.61922422 280.45844172 116.23281001 284.87109375 121.49609375 C286.43691916 123.31182645 288.0865212 124.96192704 289.8125 126.625 C293.94304231 130.70059053 297.53016647 135.17479721 301.14697266 139.70556641 C302.51697023 141.41145442 303.90381404 143.10265236 305.29296875 144.79296875 C312.52549477 153.6396765 319.15157955 162.77235435 325.4375 172.3125 C326.14060303 173.37065918 326.14060303 173.37065918 326.85791016 174.45019531 C360.71075249 225.65906341 381.18511283 284.28276493 387.4375 345.3125 C387.5303125 346.19647461 387.623125 347.08044922 387.71875 347.99121094 C390.12036776 373.33872017 389.22125137 398.50288872 383.4375 423.3125 C383.15874023 424.55112793 382.87998047 425.78975586 382.59277344 427.06591797 C380.37774543 436.85938346 377.9615645 446.59439559 375.4375 456.3125 C375.23727234 457.08418518 375.03704468 457.85587036 374.83074951 458.65093994 C351.71993164 547.42622467 351.71993164 547.42622467 332.78417969 572.51708984 C331.08069443 574.78819763 329.45123923 577.1069881 327.81958008 579.42993164 C316.71807834 595.1825837 305.05173864 610.53374234 293.33642578 625.83154297 C291.56394226 628.14730249 289.79488098 630.4656203 288.02734375 632.78515625 C280.22992498 643.01245195 272.35254006 653.17602741 264.4375 663.3125 C263.95039551 663.93753418 263.46329102 664.56256836 262.96142578 665.20654297 C257.15122022 672.65995683 251.24809966 680.03000776 245.27319336 687.35205078 C241.78187045 691.63720878 238.33920183 695.9559345 234.9375 700.3125 C230.45712585 706.05052304 225.8823079 711.70621495 221.27783203 717.3449707 C217.73638282 721.69005242 214.2559682 726.07701515 210.8125 730.5 C206.78078608 735.67265456 202.61405851 740.70856313 198.35546875 745.69555664 C194.94498885 749.69343781 191.6413381 753.76305682 188.375 757.87890625 C185.22591922 761.83430408 182.01648151 765.73984721 178.80664062 769.64599609 C177.82042864 770.84640319 176.83482555 772.04731063 175.84960938 773.24853516 C169.35612027 781.16502602 162.83631987 789.05406472 156.19970703 796.85107422 C152.89339033 800.74583438 149.70025427 804.71920882 146.52734375 808.72265625 C143.60529685 812.34380969 140.58928514 815.88204569 137.57421875 819.42578125 C134.65745487 822.85821609 131.78056574 826.31842815 128.9375 829.8125 C125.18897354 834.4178325 121.36665754 838.95454444 117.52124023 843.47875977 C114.6420468 846.87204109 111.80545763 850.29517786 109 853.75 C105.04241812 858.61379025 100.97207554 863.37131231 96.87915039 868.12084961 C93.84804711 871.64548919 90.86764684 875.20289882 87.9375 878.8125 C83.54804182 884.21612902 79.02067191 889.49288455 74.48046875 894.76953125 C71.59519383 898.12392676 68.73075587 901.49545871 65.875 904.875 C65.42455322 905.40794678 64.97410645 905.94089355 64.51000977 906.48999023 C63.15213792 908.09718264 61.79472957 909.70476519 60.4375 911.3125 C58.62559175 913.458834 56.81317663 915.60473737 55 917.75 C54.55019775 918.28230225 54.10039551 918.81460449 53.63696289 919.36303711 C49.7116019 924.0019734 45.74777739 928.60736533 41.78417969 933.21362305 C38.71821321 936.78742143 35.71374032 940.402925 32.75 944.0625 C29.20004679 948.43757747 25.48186179 952.61799192 21.6875 956.78125 C18.58045334 960.27667749 15.66321917 963.91527048 12.72265625 967.55078125 C9.09947848 971.92956191 5.27930691 976.12556622 1.4375 980.3125 C-2.15971356 978.8170292 -4.19347221 976.78543692 -6.75 973.875 C-7.93142578 972.53115234 -7.93142578 972.53115234 -9.13671875 971.16015625 C-12.25587969 967.49853254 -15.28736355 963.77065478 -18.3125 960.03125 C-20.49751569 957.39102271 -22.75421391 954.8452028 -25.0625 952.3125 C-28.08532421 948.99260514 -30.98762161 945.61485888 -33.8125 942.125 C-37.97334769 936.98555572 -42.27984489 931.98923848 -46.62182617 927.00341797 C-50.6089122 922.42206654 -54.55035505 917.80539557 -58.46386719 913.16113281 C-61.84731948 909.14865816 -65.26350184 905.16539612 -68.6875 901.1875 C-72.18073856 897.12629124 -75.62698707 893.03731029 -79 888.875 C-83.14310991 883.76942535 -87.4448045 878.81449947 -91.76538086 873.85961914 C-95.66671641 869.37499149 -99.44735162 864.8076833 -103.1875 860.1875 C-106.0874597 856.67702247 -109.07011195 853.24420065 -112.0625 849.8125 C-116.55757698 844.65674284 -120.94873222 839.43739122 -125.25390625 834.12109375 C-127.97594091 830.8095152 -130.76389731 827.55936941 -133.5625 824.3125 C-137.86227994 819.32313907 -142.06735562 814.27028656 -146.21875 809.15625 C-148.95552138 805.83563406 -151.75356385 802.57206291 -154.5625 799.3125 C-158.88184272 794.29935227 -163.11347277 789.22712485 -167.28515625 784.08984375 C-169.84454054 780.96853633 -172.44843791 777.8879997 -175.0625 774.8125 C-179.18357792 769.96295949 -183.23241483 765.06089036 -187.25 760.125 C-189.82396545 756.99450149 -192.43826903 753.90084366 -195.0625 750.8125 C-199.96798801 745.03703975 -204.78084183 739.19102599 -209.5625 733.3125 C-211.06193092 731.47870121 -212.56193458 729.64537057 -214.0625 727.8125 C-216.25475146 725.1335008 -218.44669468 722.45425792 -220.63671875 719.7734375 C-225.26573837 714.10909187 -229.91068313 708.45813098 -234.5625 702.8125 C-239.90887927 696.32309684 -245.2483477 689.82834503 -250.5625 683.3125 C-251.04541504 682.72146484 -251.52833008 682.13042969 -252.02587891 681.52148438 C-258.20035186 673.96245566 -264.32453156 666.37241429 -270.32543945 658.67480469 C-274.01232858 653.96632757 -277.80872769 649.35391975 -281.625 644.75 C-286.96252376 638.30393017 -292.12681334 631.76419743 -297.19189453 625.10107422 C-299.33532485 622.30400074 -301.51220602 619.53327376 -303.68505859 616.7590332 C-306.08883218 613.68431124 -308.47841421 610.59879088 -310.86376953 607.50976562 C-311.94994185 606.10482874 -313.0391691 604.70224495 -314.13232422 603.30273438 C-321.25580343 594.15365448 -326.83337907 584.9001209 -331.5625 574.3125 C-331.87219727 573.6230127 -332.18189453 572.93352539 -332.50097656 572.22314453 C-339.17871918 557.19304441 -344.89232772 541.74455239 -350.5625 526.3125 C-350.8170697 525.61987061 -351.0716394 524.92724121 -351.33392334 524.21362305 C-363.67538742 490.55315524 -375.00319341 456.24185139 -382.89550781 421.23828125 C-383.32156707 419.36935955 -383.76458266 417.50416937 -384.22949219 415.64453125 C-391.10963039 388.12397844 -388.74262367 357.10114652 -384.5625 329.3125 C-384.39089355 328.16813477 -384.21928711 327.02376953 -384.04248047 325.84472656 C-378.6841693 291.28146471 -368.67283772 258.27788537 -354.5625 226.3125 C-354.19543945 225.47912109 -353.82837891 224.64574219 -353.45019531 223.78710938 C-344.94412968 204.68931884 -334.5842785 186.41362701 -322.5625 169.3125 C-322.15966797 168.73242188 -321.75683594 168.15234375 -321.34179688 167.5546875 C-309.68746836 150.78427499 -297.03005654 134.28768017 -282.3203125 120.0703125 C-280.4588734 118.2088734 -278.7646763 116.2574994 -277.0625 114.25 C-274.22739531 110.96356698 -271.21596968 108.14428204 -267.90625 105.34375 C-265.57299531 103.32159594 -263.32377978 101.22348338 -261.078125 99.10498047 C-253.90993811 92.36560476 -246.40923036 86.24058197 -238.5625 80.3125 C-237.49104736 79.49628174 -237.49104736 79.49628174 -236.39794922 78.66357422 C-184.78571261 39.44801464 -124.56353153 14.56760347 -60.6875 4.0625 C-59.77540771 3.91135742 -58.86331543 3.76021484 -57.92358398 3.60449219 C-38.64417663 0.61585516 -19.48496962 -0.05810368 0 0 Z M-110.5625 201.3125 C-111.44421875 201.97121094 -112.3259375 202.62992188 -113.234375 203.30859375 C-149.14356981 231.21983154 -172.30535742 271.86843005 -180.5625 316.3125 C-180.789375 317.51132812 -181.01625 318.71015625 -181.25 319.9453125 C-188.52109278 366.70247858 -176.39174362 414.88648991 -149.375 453.43359375 C-145.08978659 459.27368495 -140.5299393 464.74958132 -135.6171875 470.0703125 C-133.84560243 472.00356313 -132.16467659 473.97539334 -130.5 476 C-127.19314837 479.86247439 -123.48501518 483.08773993 -119.5625 486.3125 C-118.551875 487.14910156 -117.54125 487.98570312 -116.5 488.84765625 C-89.77925412 510.60531268 -58.52129024 523.93144973 -24.5625 529.3125 C-22.84740234 529.58900391 -22.84740234 529.58900391 -21.09765625 529.87109375 C26.65131328 535.54617619 75.27433613 521.76215131 113.18188477 492.42211914 C123.32843088 484.35939678 133.41954114 475.54109959 141.4375 465.3125 C141.85531738 464.79059082 142.27313477 464.26868164 142.70361328 463.73095703 C174.80036187 423.4313395 188.5424841 373.58948664 182.7890625 322.41796875 C177.6191067 285.72072538 161.52345821 251.69311845 136.45703125 224.51953125 C134.69845093 222.59767848 133.02930225 220.63602511 131.375 218.625 C128.06814837 214.76252561 124.36001518 211.53726007 120.4375 208.3125 C119.426875 207.47589844 118.41625 206.63929688 117.375 205.77734375 C52.20882648 152.71508192 -43.52657966 149.5196721 -110.5625 201.3125 Z " fill="#010101" transform="translate(387.5625,-0.31250000000000006)"/>
<path d="M0 0 C0.66 0.33 1.32 0.66 2 1 C-6.58 9.58 -15.16 18.16 -24 27 C-24.66 26.67 -25.32 26.34 -26 26 C-14.08687556 12.79628708 -14.08687556 12.79628708 -7.7578125 7.5 C-5.00987044 5.15508944 -2.52156125 2.58460028 0 0 Z " fill="#696969" transform="translate(128,97)"/>
</svg>
